<?xml version="1.0" standalone="no"?>
<!DOCTYPE svg PUBLIC "-//W3C//DTD SVG 20010904//EN"
 "http://www.w3.org/TR/2001/REC-SVG-20010904/DTD/svg10.dtd">
<svg version="1.0" xmlns="http://www.w3.org/2000/svg"
 width="1133.000000pt" height="907.000000pt" viewBox="0 0 1133.000000 907.000000"
 preserveAspectRatio="xMidYMid meet">
<metadata>
Created by potrace 1.16, written by Peter Selinger 2001-2019
</metadata>
<g transform="translate(0.000000,907.000000) scale(0.100000,-0.100000)"
fill="#000000" stroke="none">
<path d="M5491 8309 l-162 -194 161 -3 c88 -1 232 -1 320 0 l160 3 -136 170
c-75 94 -146 181 -159 194 l-23 23 -161 -193z"/>
<path d="M4325 8083 c-48 -126 -90 -234 -92 -241 -5 -11 582 182 600 198 7 7
-394 270 -412 270 -5 0 -48 -102 -96 -227z"/>
<path d="M6667 8180 c-109 -70 -198 -131 -198 -136 0 -4 135 -54 301 -110 166
-57 300 -98 297 -91 -2 7 -44 114 -92 240 -48 125 -93 227 -99 226 -6 0 -100
-58 -209 -129z"/>
<path d="M5345 7890 c-585 -59 -1125 -254 -1600 -578 -834 -569 -1365 -1466
-1465 -2471 -13 -133 -13 -500 0 -632 101 -1006 627 -1903 1450 -2471 711
-491 1564 -691 2415 -567 945 137 1788 673 2319 1474 288 433 454 867 538
1405 20 129 22 182 22 475 0 293 -2 346 -22 475 -133 848 -536 1573 -1172
2109 -496 417 -1079 674 -1740 766 -135 19 -607 28 -745 15z m309 -192 c3 -50
6 -268 6 -485 l0 -393 925 0 925 0 0 -525 0 -525 -925 0 -925 0 0 -320 0 -320
755 0 755 0 0 -520 0 -520 -755 0 -755 0 0 -355 0 -355 970 0 970 0 0 -525 0
-525 -970 0 -970 0 0 -448 c0 -247 -3 -490 -6 -540 l-7 -92 -71 0 c-39 0 -125
5 -191 10 -787 68 -1513 411 -2066 976 -511 524 -819 1161 -915 1899 -22 160
-25 590 -6 740 71 561 239 1016 543 1471 199 298 502 609 803 825 214 153 526
321 751 405 355 131 722 202 1101 213 l51 1 7 -92z"/>
<path d="M3850 4575 l0 -2245 903 2 902 3 3 522 2 523 -167 2 -168 3 -3 352
-2 353 167 2 168 3 3 518 2 517 -170 0 -170 0 0 320 0 320 168 2 167 3 3 523
2 522 -905 0 -905 0 0 -2245z"/>
<path d="M3307 7673 c-13 -144 -29 -424 -25 -428 6 -6 504 357 507 370 2 8
-337 99 -444 119 l-32 6 -6 -67z"/>
<path d="M7742 7682 c-128 -32 -232 -61 -230 -67 2 -8 448 -339 497 -369 12
-8 13 17 7 160 -10 255 -17 334 -30 333 -6 -1 -116 -26 -244 -57z"/>
<path d="M2630 6883 c-107 -7 -196 -16 -198 -18 -6 -6 110 -495 117 -495 5 0
120 159 334 462 l48 68 -53 -1 c-29 -1 -141 -8 -248 -16z"/>
<path d="M8407 6847 c168 -235 339 -467 344 -467 7 0 123 479 117 485 -4 4
-418 35 -470 35 l-30 0 39 -53z"/>
<path d="M2098 5845 c-126 -49 -228 -94 -228 -100 1 -16 254 -406 264 -406 10
0 197 569 193 586 -1 6 -104 -30 -229 -80z"/>
<path d="M8970 5931 c0 -12 189 -570 198 -588 11 -19 -6 -43 156 220 111 181
115 188 93 197 -112 49 -447 176 -447 171z"/>
<path d="M9240 4525 c0 -179 2 -325 5 -325 6 0 386 316 388 323 2 4 -382 327
-389 327 -2 0 -4 -146 -4 -325z"/>
<path d="M1862 4685 c-106 -86 -192 -160 -190 -165 5 -12 379 -322 384 -317 2
2 3 147 2 321 l-3 317 -193 -156z"/>
<path d="M9070 3415 c-56 -168 -100 -308 -98 -310 3 -4 371 138 450 173 14 6
-3 40 -111 220 -71 117 -131 215 -134 218 -3 3 -51 -133 -107 -301z"/>
<path d="M1998 3498 l-137 -213 232 -92 c128 -50 233 -90 235 -88 4 4 -175
571 -187 593 -5 8 -58 -66 -143 -200z"/>
<path d="M2491 2429 c-35 -132 -61 -243 -57 -246 7 -7 419 -35 467 -31 l37 3
-187 257 c-102 142 -188 257 -191 258 -3 0 -34 -108 -69 -241z"/>
<path d="M8673 2565 c-45 -60 -130 -177 -190 -260 l-110 -150 41 -3 c51 -3
445 23 452 31 3 3 -21 115 -53 249 l-59 243 -81 -110z"/>
<path d="M7780 1628 c-135 -98 -251 -185 -257 -191 -10 -10 37 -26 231 -78
l244 -65 6 60 c11 113 28 422 25 438 -3 10 -76 -38 -249 -164z"/>
<path d="M3280 1773 c0 -38 30 -477 33 -478 5 -4 487 129 487 134 -1 3 -92 70
-203 148 -111 78 -228 160 -259 183 l-58 41 0 -28z"/>
<path d="M4251 1148 c12 -29 53 -134 91 -233 39 -99 72 -181 73 -183 4 -4 405
246 424 263 14 14 33 7 -434 154 -88 28 -163 51 -167 51 -4 0 2 -24 13 -52z"/>
<path d="M6945 1165 c-55 -19 -187 -62 -293 -96 -106 -34 -190 -65 -185 -70
13 -13 415 -270 418 -267 1 2 34 84 73 183 38 99 79 204 91 233 14 36 17 52 8
51 -6 0 -57 -16 -112 -34z"/>
<path d="M5330 925 c0 -5 275 -340 314 -382 9 -10 50 33 174 181 89 107 162
197 162 200 0 3 -146 6 -325 6 -179 0 -325 -2 -325 -5z"/>
</g>
</svg>
